<mxfile host="app.diagrams.net" modified="2020-11-12T07:52:14.047Z" agent="5.0 (Windows NT 10.0; Win64; x64) AppleWebKit/537.36 (KHTML, like Gecko) Chrome/86.0.4240.193 Safari/537.36" etag="NkAvFmnCUKHZFy7W7CUi" version="13.9.6" type="github" pages="2">
  <diagram name="Page-1" id="e7e014a7-5840-1c2e-5031-d8a46d1fe8dd">
    <mxGraphModel dx="1278" dy="548" grid="1" gridSize="10" guides="1" tooltips="1" connect="1" arrows="1" fold="1" page="1" pageScale="1" pageWidth="1169" pageHeight="826" background="#ffffff" math="0" shadow="0">
      <root>
        <mxCell id="0" />
        <mxCell id="1" parent="0" />
        <mxCell id="FoGvRZkrYBHEtC-wr9ac-1" value="" style="rounded=0;whiteSpace=wrap;html=1;" vertex="1" parent="1">
          <mxGeometry x="160" y="627" width="310" height="100" as="geometry" />
        </mxCell>
        <mxCell id="sxI7bLIg5NEw1aMQBNPB-42" value="WJob" style="html=1;" parent="1" vertex="1">
          <mxGeometry x="650" y="400" width="60" height="44" as="geometry" />
        </mxCell>
        <mxCell id="sxI7bLIg5NEw1aMQBNPB-52" value="" style="shape=image;html=1;verticalAlign=top;verticalLabelPosition=bottom;labelBackgroundColor=#ffffff;imageAspect=0;aspect=fixed;image=https://cdn4.iconfinder.com/data/icons/logos-brands-5/24/mysql-128.png" parent="1" vertex="1">
          <mxGeometry x="370" y="627" width="83" height="83" as="geometry" />
        </mxCell>
        <mxCell id="sxI7bLIg5NEw1aMQBNPB-55" value="" style="aspect=fixed;html=1;points=[];align=center;image;fontSize=12;image=img/lib/mscae/Cache_Redis_Product.svg;" parent="1" vertex="1">
          <mxGeometry x="241.5" y="640" width="71.43" height="60" as="geometry" />
        </mxCell>
        <mxCell id="sxI7bLIg5NEw1aMQBNPB-57" value="WF" style="rounded=0;whiteSpace=wrap;html=1;" parent="1" vertex="1">
          <mxGeometry x="160" y="400" width="120" height="60" as="geometry" />
        </mxCell>
        <mxCell id="sxI7bLIg5NEw1aMQBNPB-59" value="会议模块" style="rounded=0;whiteSpace=wrap;html=1;" parent="1" vertex="1">
          <mxGeometry x="160" y="510" width="100" height="90" as="geometry" />
        </mxCell>
        <mxCell id="sxI7bLIg5NEw1aMQBNPB-60" value="会议室模块" style="rounded=0;whiteSpace=wrap;html=1;" parent="1" vertex="1">
          <mxGeometry x="286.5" y="507" width="100" height="50" as="geometry" />
        </mxCell>
        <mxCell id="sxI7bLIg5NEw1aMQBNPB-62" value="推送模块" style="rounded=0;whiteSpace=wrap;html=1;" parent="1" vertex="1">
          <mxGeometry x="286.5" y="560" width="100" height="50" as="geometry" />
        </mxCell>
        <mxCell id="sxI7bLIg5NEw1aMQBNPB-63" value="第三方调用模块" style="rounded=0;whiteSpace=wrap;html=1;" parent="1" vertex="1">
          <mxGeometry x="410" y="507" width="100" height="50" as="geometry" />
        </mxCell>
        <mxCell id="sxI7bLIg5NEw1aMQBNPB-64" value="WF" style="rounded=0;whiteSpace=wrap;html=1;" parent="1" vertex="1">
          <mxGeometry x="330" y="400" width="120" height="60" as="geometry" />
        </mxCell>
        <mxCell id="sxI7bLIg5NEw1aMQBNPB-65" value="WF" style="rounded=0;whiteSpace=wrap;html=1;" parent="1" vertex="1">
          <mxGeometry x="491.5" y="400" width="120" height="60" as="geometry" />
        </mxCell>
        <mxCell id="sxI7bLIg5NEw1aMQBNPB-69" value="微聊" style="html=1;" parent="1" vertex="1">
          <mxGeometry x="650" y="456" width="60" height="44" as="geometry" />
        </mxCell>
        <mxCell id="sxI7bLIg5NEw1aMQBNPB-70" value="Kafka" style="html=1;" parent="1" vertex="1">
          <mxGeometry x="650" y="513" width="60" height="44" as="geometry" />
        </mxCell>
        <mxCell id="FoGvRZkrYBHEtC-wr9ac-4" value="日志监控" style="rounded=0;whiteSpace=wrap;html=1;" vertex="1" parent="1">
          <mxGeometry x="160" y="470" width="451.5" height="30" as="geometry" />
        </mxCell>
        <mxCell id="FoGvRZkrYBHEtC-wr9ac-7" value="用户信息模块" style="rounded=0;whiteSpace=wrap;html=1;" vertex="1" parent="1">
          <mxGeometry x="410" y="560" width="100" height="50" as="geometry" />
        </mxCell>
      </root>
    </mxGraphModel>
  </diagram>
  <diagram id="ScodU-VppGZNiEE2D1oO" name="Page-2">
    <mxGraphModel dx="2105" dy="548" grid="1" gridSize="10" guides="1" tooltips="1" connect="1" arrows="1" fold="1" page="1" pageScale="1" pageWidth="827" pageHeight="1169" math="0" shadow="0">
      <root>
        <mxCell id="Jc8TKW2NatCU_KrNYgRV-0" />
        <mxCell id="Jc8TKW2NatCU_KrNYgRV-1" parent="Jc8TKW2NatCU_KrNYgRV-0" />
        <mxCell id="BsJl3nNRGO4muCpbRTvP-14" value="" style="rounded=0;whiteSpace=wrap;html=1;" vertex="1" parent="Jc8TKW2NatCU_KrNYgRV-1">
          <mxGeometry x="230" y="465" width="610" height="120" as="geometry" />
        </mxCell>
        <mxCell id="BsJl3nNRGO4muCpbRTvP-12" value="" style="rounded=0;whiteSpace=wrap;html=1;" vertex="1" parent="Jc8TKW2NatCU_KrNYgRV-1">
          <mxGeometry x="230" y="330" width="610" height="120" as="geometry" />
        </mxCell>
        <mxCell id="BsJl3nNRGO4muCpbRTvP-6" value="" style="rounded=0;whiteSpace=wrap;html=1;" vertex="1" parent="Jc8TKW2NatCU_KrNYgRV-1">
          <mxGeometry x="230" y="200" width="610" height="120" as="geometry" />
        </mxCell>
        <mxCell id="BsJl3nNRGO4muCpbRTvP-22" value="Access日志" style="edgeStyle=none;rounded=0;orthogonalLoop=1;jettySize=auto;html=1;exitX=1;exitY=0.5;exitDx=0;exitDy=0;" edge="1" parent="Jc8TKW2NatCU_KrNYgRV-1" source="BsJl3nNRGO4muCpbRTvP-0">
          <mxGeometry relative="1" as="geometry">
            <mxPoint x="226" y="260" as="targetPoint" />
          </mxGeometry>
        </mxCell>
        <mxCell id="BsJl3nNRGO4muCpbRTvP-23" style="edgeStyle=none;rounded=0;orthogonalLoop=1;jettySize=auto;html=1;exitX=1;exitY=0.5;exitDx=0;exitDy=0;entryX=0;entryY=0.5;entryDx=0;entryDy=0;" edge="1" parent="Jc8TKW2NatCU_KrNYgRV-1" source="BsJl3nNRGO4muCpbRTvP-0" target="BsJl3nNRGO4muCpbRTvP-12">
          <mxGeometry relative="1" as="geometry" />
        </mxCell>
        <mxCell id="BsJl3nNRGO4muCpbRTvP-26" value="日志" style="edgeLabel;html=1;align=center;verticalAlign=middle;resizable=0;points=[];" vertex="1" connectable="0" parent="BsJl3nNRGO4muCpbRTvP-23">
          <mxGeometry x="-0.1503" y="-2" relative="1" as="geometry">
            <mxPoint y="-4.14" as="offset" />
          </mxGeometry>
        </mxCell>
        <mxCell id="BsJl3nNRGO4muCpbRTvP-24" style="edgeStyle=none;rounded=0;orthogonalLoop=1;jettySize=auto;html=1;exitX=1;exitY=0.5;exitDx=0;exitDy=0;entryX=0;entryY=0.5;entryDx=0;entryDy=0;" edge="1" parent="Jc8TKW2NatCU_KrNYgRV-1" source="BsJl3nNRGO4muCpbRTvP-0" target="BsJl3nNRGO4muCpbRTvP-14">
          <mxGeometry relative="1" as="geometry" />
        </mxCell>
        <mxCell id="BsJl3nNRGO4muCpbRTvP-27" value="上报" style="edgeLabel;html=1;align=center;verticalAlign=middle;resizable=0;points=[];" vertex="1" connectable="0" parent="BsJl3nNRGO4muCpbRTvP-24">
          <mxGeometry x="-0.13" y="1" relative="1" as="geometry">
            <mxPoint as="offset" />
          </mxGeometry>
        </mxCell>
        <mxCell id="BsJl3nNRGO4muCpbRTvP-0" value="WF" style="rounded=0;whiteSpace=wrap;html=1;" vertex="1" parent="Jc8TKW2NatCU_KrNYgRV-1">
          <mxGeometry x="-30" y="355" width="120" height="60" as="geometry" />
        </mxCell>
        <mxCell id="BsJl3nNRGO4muCpbRTvP-1" value="kafka" style="rounded=0;whiteSpace=wrap;html=1;" vertex="1" parent="Jc8TKW2NatCU_KrNYgRV-1">
          <mxGeometry x="250" y="370" width="120" height="60" as="geometry" />
        </mxCell>
        <mxCell id="BsJl3nNRGO4muCpbRTvP-2" value="HDFS" style="rounded=0;whiteSpace=wrap;html=1;" vertex="1" parent="Jc8TKW2NatCU_KrNYgRV-1">
          <mxGeometry x="250" y="230" width="120" height="60" as="geometry" />
        </mxCell>
        <mxCell id="BsJl3nNRGO4muCpbRTvP-3" value="WMonitor" style="rounded=0;whiteSpace=wrap;html=1;" vertex="1" parent="Jc8TKW2NatCU_KrNYgRV-1">
          <mxGeometry x="260" y="510" width="120" height="60" as="geometry" />
        </mxCell>
        <mxCell id="BsJl3nNRGO4muCpbRTvP-4" value="58DP" style="rounded=0;whiteSpace=wrap;html=1;" vertex="1" parent="Jc8TKW2NatCU_KrNYgRV-1">
          <mxGeometry x="400" y="230" width="120" height="60" as="geometry" />
        </mxCell>
        <mxCell id="BsJl3nNRGO4muCpbRTvP-5" value="Hive" style="rounded=0;whiteSpace=wrap;html=1;" vertex="1" parent="Jc8TKW2NatCU_KrNYgRV-1">
          <mxGeometry x="550" y="230" width="120" height="60" as="geometry" />
        </mxCell>
        <mxCell id="BsJl3nNRGO4muCpbRTvP-7" value="Logstash" style="rounded=0;whiteSpace=wrap;html=1;" vertex="1" parent="Jc8TKW2NatCU_KrNYgRV-1">
          <mxGeometry x="400" y="370" width="120" height="60" as="geometry" />
        </mxCell>
        <mxCell id="BsJl3nNRGO4muCpbRTvP-8" value="ES" style="rounded=0;whiteSpace=wrap;html=1;" vertex="1" parent="Jc8TKW2NatCU_KrNYgRV-1">
          <mxGeometry x="550" y="370" width="120" height="60" as="geometry" />
        </mxCell>
        <mxCell id="BsJl3nNRGO4muCpbRTvP-9" value="kibana" style="rounded=0;whiteSpace=wrap;html=1;" vertex="1" parent="Jc8TKW2NatCU_KrNYgRV-1">
          <mxGeometry x="707" y="370" width="120" height="60" as="geometry" />
        </mxCell>
        <mxCell id="BsJl3nNRGO4muCpbRTvP-10" value="WMonitor预警" style="rounded=0;whiteSpace=wrap;html=1;" vertex="1" parent="Jc8TKW2NatCU_KrNYgRV-1">
          <mxGeometry x="430" y="510" width="120" height="60" as="geometry" />
        </mxCell>
        <mxCell id="BsJl3nNRGO4muCpbRTvP-11" value="&lt;span&gt;数据分析统计&lt;/span&gt;" style="text;html=1;align=center;verticalAlign=middle;resizable=0;points=[];autosize=1;" vertex="1" parent="Jc8TKW2NatCU_KrNYgRV-1">
          <mxGeometry x="740" y="240" width="90" height="20" as="geometry" />
        </mxCell>
        <mxCell id="BsJl3nNRGO4muCpbRTvP-15" value="&lt;span&gt;日志查询&lt;/span&gt;" style="text;html=1;align=center;verticalAlign=middle;resizable=0;points=[];autosize=1;" vertex="1" parent="Jc8TKW2NatCU_KrNYgRV-1">
          <mxGeometry x="755" y="340" width="60" height="20" as="geometry" />
        </mxCell>
        <mxCell id="BsJl3nNRGO4muCpbRTvP-16" value="监控报警" style="text;html=1;align=center;verticalAlign=middle;resizable=0;points=[];autosize=1;" vertex="1" parent="Jc8TKW2NatCU_KrNYgRV-1">
          <mxGeometry x="755" y="480" width="60" height="20" as="geometry" />
        </mxCell>
        <mxCell id="BsJl3nNRGO4muCpbRTvP-20" style="rounded=0;orthogonalLoop=1;jettySize=auto;html=1;entryX=0;entryY=0.5;entryDx=0;entryDy=0;" edge="1" parent="Jc8TKW2NatCU_KrNYgRV-1" source="BsJl3nNRGO4muCpbRTvP-18" target="BsJl3nNRGO4muCpbRTvP-0">
          <mxGeometry relative="1" as="geometry" />
        </mxCell>
        <mxCell id="BsJl3nNRGO4muCpbRTvP-18" value="" style="verticalLabelPosition=bottom;html=1;verticalAlign=top;align=center;strokeColor=none;fillColor=#00BEF2;shape=mxgraph.azure.user;" vertex="1" parent="Jc8TKW2NatCU_KrNYgRV-1">
          <mxGeometry x="-130" y="360" width="47.5" height="50" as="geometry" />
        </mxCell>
      </root>
    </mxGraphModel>
  </diagram>
</mxfile>
